<mxfile host="app.diagrams.net" modified="2021-03-28T05:36:02.466Z" agent="5.0 (Windows NT 10.0; Win64; x64) AppleWebKit/537.36 (KHTML, like Gecko) Chrome/89.0.4389.90 Safari/537.36" etag="tG5HOpqZnmwJrKGiltxo" version="14.5.3" type="github">
  <diagram id="R2lEEEUBdFMjLlhIrx00" name="Page-1">
    <mxGraphModel dx="868" dy="460" grid="1" gridSize="10" guides="1" tooltips="1" connect="1" arrows="1" fold="1" page="1" pageScale="1" pageWidth="850" pageHeight="1100" math="0" shadow="0" extFonts="Permanent Marker^https://fonts.googleapis.com/css?family=Permanent+Marker">
      <root>
        <mxCell id="0" />
        <mxCell id="1" parent="0" />
        <mxCell id="alMeNuOkIj7yxBn2gCl5-1" value="patient" style="swimlane;childLayout=stackLayout;horizontal=1;startSize=30;horizontalStack=0;rounded=1;fontSize=14;fontStyle=0;strokeWidth=2;resizeParent=0;resizeLast=1;shadow=0;dashed=0;align=center;" vertex="1" parent="1">
          <mxGeometry x="265" y="150" width="160" height="250" as="geometry">
            <mxRectangle x="340" y="180" width="70" height="30" as="alternateBounds" />
          </mxGeometry>
        </mxCell>
        <mxCell id="alMeNuOkIj7yxBn2gCl5-2" value="PK id&#xa;patient_name&#xa;patient_lastname&#xa;patient_second_lastname&#xa;patient_CURP&#xa;patient_age&#xa;patient_gender&#xa;patient_birth&#xa;patient_address&#xa;patient_flooer&#xa;patient_bed&#xa;patient_diagnostic&#xa;patient_status&#xa;patient_admision_date&#xa;hospital_id" style="align=left;strokeColor=none;fillColor=none;spacingLeft=4;fontSize=12;verticalAlign=top;resizable=0;rotatable=0;part=1;" vertex="1" parent="alMeNuOkIj7yxBn2gCl5-1">
          <mxGeometry y="30" width="160" height="220" as="geometry" />
        </mxCell>
        <mxCell id="alMeNuOkIj7yxBn2gCl5-3" value="" style="edgeStyle=entityRelationEdgeStyle;fontSize=12;html=1;endArrow=ERmany;startArrow=ERmany;entryX=-0.05;entryY=0.289;entryDx=0;entryDy=0;entryPerimeter=0;exitX=1;exitY=0.5;exitDx=0;exitDy=0;" edge="1" parent="1" source="alMeNuOkIj7yxBn2gCl5-5" target="alMeNuOkIj7yxBn2gCl5-2">
          <mxGeometry width="100" height="100" relative="1" as="geometry">
            <mxPoint x="210" y="250" as="sourcePoint" />
            <mxPoint x="300" y="230" as="targetPoint" />
          </mxGeometry>
        </mxCell>
        <mxCell id="alMeNuOkIj7yxBn2gCl5-4" value="users" style="swimlane;childLayout=stackLayout;horizontal=1;startSize=30;horizontalStack=0;rounded=1;fontSize=14;fontStyle=0;strokeWidth=2;resizeParent=0;resizeLast=1;shadow=0;dashed=0;align=center;" vertex="1" parent="1">
          <mxGeometry x="50" y="320" width="160" height="150" as="geometry" />
        </mxCell>
        <mxCell id="alMeNuOkIj7yxBn2gCl5-5" value="PK idÂ &#xa;name&#xa;hospital&#xa;user&#xa;password&#xa;shift&#xa;role&#xa;email&#xa;" style="align=left;strokeColor=none;fillColor=none;spacingLeft=4;fontSize=12;verticalAlign=top;resizable=0;rotatable=0;part=1;" vertex="1" parent="alMeNuOkIj7yxBn2gCl5-4">
          <mxGeometry y="30" width="160" height="120" as="geometry" />
        </mxCell>
        <mxCell id="alMeNuOkIj7yxBn2gCl5-7" value="transfers" style="swimlane;childLayout=stackLayout;horizontal=1;startSize=30;horizontalStack=0;rounded=1;fontSize=14;fontStyle=0;strokeWidth=2;resizeParent=0;resizeLast=1;shadow=0;dashed=0;align=center;" vertex="1" parent="1">
          <mxGeometry x="520" y="200" width="160" height="190" as="geometry" />
        </mxCell>
        <mxCell id="alMeNuOkIj7yxBn2gCl5-8" value="PK transfer_id&#xa;priority&#xa;date_sent&#xa;name_resp&#xa;lastN_resp&#xa;service_sent&#xa;diagnostic&#xa;clinic_sum&#xa;hospital_envia&#xa;hospital_recibe&#xa;FK patient_id" style="align=left;strokeColor=none;fillColor=none;spacingLeft=4;fontSize=12;verticalAlign=top;resizable=0;rotatable=0;part=1;" vertex="1" parent="alMeNuOkIj7yxBn2gCl5-7">
          <mxGeometry y="30" width="160" height="160" as="geometry" />
        </mxCell>
        <mxCell id="alMeNuOkIj7yxBn2gCl5-10" value="" style="edgeStyle=entityRelationEdgeStyle;fontSize=12;html=1;endArrow=ERoneToMany;exitX=1;exitY=0.25;exitDx=0;exitDy=0;entryX=0;entryY=0.5;entryDx=0;entryDy=0;" edge="1" parent="1" source="alMeNuOkIj7yxBn2gCl5-2" target="alMeNuOkIj7yxBn2gCl5-8">
          <mxGeometry width="100" height="100" relative="1" as="geometry">
            <mxPoint x="370" y="390" as="sourcePoint" />
            <mxPoint x="470" y="290" as="targetPoint" />
          </mxGeometry>
        </mxCell>
      </root>
    </mxGraphModel>
  </diagram>
</mxfile>
